<svg width="1200" height="2354" viewBox="0 0 1200 2354" class="keymap" xmlns="http://www.w3.org/2000/svg" xmlns:xlink="http://www.w3.org/1999/xlink">
<defs>/* start glyphs */
<svg id="mdi:apple-keyboard-command">
<svg xmlns="http://www.w3.org/2000/svg" id="mdi-apple-keyboard-command" viewBox="0 0 24 24"><path d="M6,2A4,4 0 0,1 10,6V8H14V6A4,4 0 0,1 18,2A4,4 0 0,1 22,6A4,4 0 0,1 18,10H16V14H18A4,4 0 0,1 22,18A4,4 0 0,1 18,22A4,4 0 0,1 14,18V16H10V18A4,4 0 0,1 6,22A4,4 0 0,1 2,18A4,4 0 0,1 6,14H8V10H6A4,4 0 0,1 2,6A4,4 0 0,1 6,2M16,18A2,2 0 0,0 18,20A2,2 0 0,0 20,18A2,2 0 0,0 18,16H16V18M14,10H10V14H14V10M6,16A2,2 0 0,0 4,18A2,2 0 0,0 6,20A2,2 0 0,0 8,18V16H6M8,6A2,2 0 0,0 6,4A2,2 0 0,0 4,6A2,2 0 0,0 6,8H8V6M18,8A2,2 0 0,0 20,6A2,2 0 0,0 18,4A2,2 0 0,0 16,6V8H18Z" /></svg>
</svg>
<svg id="mdi:apple-keyboard-control">
<svg xmlns="http://www.w3.org/2000/svg" id="mdi-apple-keyboard-control" viewBox="0 0 24 24"><path d="M19.78,11.78L18.36,13.19L12,6.83L5.64,13.19L4.22,11.78L12,4L19.78,11.78Z" /></svg>
</svg>
<svg id="mdi:apple-keyboard-option">
<svg xmlns="http://www.w3.org/2000/svg" id="mdi-apple-keyboard-option" viewBox="0 0 24 24"><path d="M3,4H9.11L16.15,18H21V20H14.88L7.84,6H3V4M14,4H21V6H14V4Z" /></svg>
</svg>
<svg id="mdi:apple-keyboard-shift">
<svg xmlns="http://www.w3.org/2000/svg" id="mdi-apple-keyboard-shift" viewBox="0 0 24 24"><path d="M15,18V12H17.17L12,6.83L6.83,12H9V18H15M12,4L22,14H17V20H7V14H2L12,4Z" /></svg>
</svg>
</defs>/* end glyphs */
<style>/* inherit to force styles through use tags */
svg path {
    fill: inherit;
}

/* font and background color specifications */
svg.keymap {
    font-family: SFMono-Regular,Consolas,Liberation Mono,Menlo,monospace;
    font-size: 14px;
    font-kerning: normal;
    text-rendering: optimizeLegibility;
    fill: #24292e;
}

/* default key styling */
rect.key {
    fill: #f6f8fa;
    stroke: #c9cccf;
    stroke-width: 1;
}

/* default key side styling, only used is draw_key_sides is set */
rect.side {
    filter: brightness(90%);
}

/* color accent for combo boxes */
rect.combo, rect.combo-separate {
    fill: #cdf;
}

/* color accent for held keys */
rect.held, rect.combo.held {
    fill: #fdd;
}

/* color accent for ghost (optional) keys */
rect.ghost, rect.combo.ghost {
    stroke-dasharray: 4, 4;
    stroke-width: 2;
}

text {
    text-anchor: middle;
    dominant-baseline: middle;
}

/* styling for layer labels */
text.label {
    font-weight: bold;
    text-anchor: start;
    stroke: white;
    stroke-width: 2;
    paint-order: stroke;
}

/* styling for combo tap, and key hold/shifted label text */
text.combo, text.hold, text.shifted {
    font-size: 11px;
}

text.hold {
    text-anchor: middle;
    dominant-baseline: auto;
}

text.shifted {
    text-anchor: middle;
    dominant-baseline: hanging;
}

/* styling for hold/shifted label text in combo box */
text.combo.hold, text.combo.shifted {
    font-size: 8px;
}

/* lighter symbol for transparent keys */
text.trans {
    fill: #7b7e81;
}

/* styling for combo dendrons */
path.combo {
    stroke-width: 1;
    stroke: gray;
    fill: none;
}

/* Start Tabler Icons Cleanup */
/* cannot use height/width with glyphs */
.icon-tabler > path {
    fill: inherit;
    stroke: inherit;
    stroke-width: 2;
}
/* hide tabler's default box */
.icon-tabler > path[stroke="none"][fill="none"] {
    visibility: hidden;
}
/* End Tabler Icons Cleanup */
</style>
<g transform="translate(0, 0)" class="layer-base">
<text x="0" y="0" class="label">base</text>
<g transform="translate(0, 0)">
<g transform="translate(40, 70)" class="key keypos-0">
<rect rx="4" ry="4" x="-38" y="-38" width="77" height="77" class="key"/>
<text x="0" y="0" class="key tap">GLOBE</text>
</g>
<g transform="translate(120, 70)" class="key keypos-1">
<rect rx="4" ry="4" x="-38" y="-38" width="77" height="77" class="key"/>
<text x="0" y="0" class="key tap">Q</text>
</g>
<g transform="translate(200, 50)" class="key keypos-2">
<rect rx="4" ry="4" x="-38" y="-38" width="77" height="77" class="key"/>
<text x="0" y="0" class="key tap">W</text>
</g>
<g transform="translate(280, 40)" class="key keypos-3">
<rect rx="4" ry="4" x="-38" y="-38" width="77" height="77" class="key"/>
<text x="0" y="0" class="key tap">E</text>
</g>
<g transform="translate(360, 50)" class="key keypos-4">
<rect rx="4" ry="4" x="-38" y="-38" width="77" height="77" class="key"/>
<text x="0" y="0" class="key tap">R</text>
</g>
<g transform="translate(440, 60)" class="key keypos-5">
<rect rx="4" ry="4" x="-38" y="-38" width="77" height="77" class="key"/>
<text x="0" y="0" class="key tap">T</text>
</g>
<g transform="translate(760, 60)" class="key keypos-6">
<rect rx="4" ry="4" x="-38" y="-38" width="77" height="77" class="key"/>
<text x="0" y="0" class="key tap">Y</text>
</g>
<g transform="translate(840, 50)" class="key keypos-7">
<rect rx="4" ry="4" x="-38" y="-38" width="77" height="77" class="key"/>
<text x="0" y="0" class="key tap">U</text>
</g>
<g transform="translate(920, 40)" class="key keypos-8">
<rect rx="4" ry="4" x="-38" y="-38" width="77" height="77" class="key"/>
<text x="0" y="0" class="key tap">I</text>
</g>
<g transform="translate(1000, 50)" class="key keypos-9">
<rect rx="4" ry="4" x="-38" y="-38" width="77" height="77" class="key"/>
<text x="0" y="0" class="key tap">O</text>
</g>
<g transform="translate(1080, 70)" class="key keypos-10">
<rect rx="4" ry="4" x="-38" y="-38" width="77" height="77" class="key"/>
<text x="0" y="0" class="key tap">P</text>
</g>
<g transform="translate(1160, 70)" class="key keypos-11">
<rect rx="4" ry="4" x="-38" y="-38" width="77" height="77" class="key"/>
<text x="0" y="0" class="key tap">
<tspan x="0" dy="-0.5em">Zoom</tspan><tspan x="0" dy="1.0em">In</tspan>
</text>
</g>
<g transform="translate(40, 150)" class="key keypos-12">
<rect rx="4" ry="4" x="-38" y="-38" width="77" height="77" class="key"/>
<text x="0" y="0" class="key tap">⏯️</text>
</g>
<g transform="translate(120, 150)" class="key keypos-13">
<rect rx="4" ry="4" x="-38" y="-38" width="77" height="77" class="key"/>
<text x="0" y="0" class="key tap">A</text>
<use href="#mdi:apple-keyboard-control" xlink:href="#mdi:apple-keyboard-control" x="-9" y="16" height="18" width="18.0" class="key hold glyph mdi:apple-keyboard-control"/>
</g>
<g transform="translate(200, 130)" class="key keypos-14">
<rect rx="4" ry="4" x="-38" y="-38" width="77" height="77" class="key"/>
<text x="0" y="0" class="key tap">S</text>
<use href="#mdi:apple-keyboard-option" xlink:href="#mdi:apple-keyboard-option" x="-9" y="16" height="18" width="18.0" class="key hold glyph mdi:apple-keyboard-option"/>
</g>
<g transform="translate(280, 120)" class="key keypos-15">
<rect rx="4" ry="4" x="-38" y="-38" width="77" height="77" class="key"/>
<text x="0" y="0" class="key tap">D</text>
<use href="#mdi:apple-keyboard-command" xlink:href="#mdi:apple-keyboard-command" x="-9" y="16" height="18" width="18.0" class="key hold glyph mdi:apple-keyboard-command"/>
</g>
<g transform="translate(360, 130)" class="key keypos-16">
<rect rx="4" ry="4" x="-38" y="-38" width="77" height="77" class="key"/>
<text x="0" y="0" class="key tap">F</text>
<use href="#mdi:apple-keyboard-shift" xlink:href="#mdi:apple-keyboard-shift" x="-9" y="16" height="18" width="18.0" class="key hold glyph mdi:apple-keyboard-shift"/>
</g>
<g transform="translate(440, 140)" class="key keypos-17">
<rect rx="4" ry="4" x="-38" y="-38" width="77" height="77" class="key"/>
<text x="0" y="0" class="key tap">G</text>
</g>
<g transform="translate(760, 140)" class="key keypos-18">
<rect rx="4" ry="4" x="-38" y="-38" width="77" height="77" class="key"/>
<text x="0" y="0" class="key tap">H</text>
</g>
<g transform="translate(840, 130)" class="key keypos-19">
<rect rx="4" ry="4" x="-38" y="-38" width="77" height="77" class="key"/>
<text x="0" y="0" class="key tap">J</text>
<use href="#mdi:apple-keyboard-shift" xlink:href="#mdi:apple-keyboard-shift" x="-9" y="16" height="18" width="18.0" class="key hold glyph mdi:apple-keyboard-shift"/>
</g>
<g transform="translate(920, 120)" class="key keypos-20">
<rect rx="4" ry="4" x="-38" y="-38" width="77" height="77" class="key"/>
<text x="0" y="0" class="key tap">K</text>
<use href="#mdi:apple-keyboard-command" xlink:href="#mdi:apple-keyboard-command" x="-9" y="16" height="18" width="18.0" class="key hold glyph mdi:apple-keyboard-command"/>
</g>
<g transform="translate(1000, 130)" class="key keypos-21">
<rect rx="4" ry="4" x="-38" y="-38" width="77" height="77" class="key"/>
<text x="0" y="0" class="key tap">L</text>
<use href="#mdi:apple-keyboard-option" xlink:href="#mdi:apple-keyboard-option" x="-9" y="16" height="18" width="18.0" class="key hold glyph mdi:apple-keyboard-option"/>
</g>
<g transform="translate(1080, 150)" class="key keypos-22">
<rect rx="4" ry="4" x="-38" y="-38" width="77" height="77" class="key"/>
<text x="0" y="0" class="key tap">;</text>
<use href="#mdi:apple-keyboard-control" xlink:href="#mdi:apple-keyboard-control" x="-9" y="16" height="18" width="18.0" class="key hold glyph mdi:apple-keyboard-control"/>
</g>
<g transform="translate(1160, 150)" class="key keypos-23">
<rect rx="4" ry="4" x="-38" y="-38" width="77" height="77" class="key"/>
<text x="0" y="0" class="key tap">
<tspan x="0" dy="-0.5em">Print</tspan><tspan x="0" dy="1.0em">Scr</tspan>
</text>
</g>
<g transform="translate(40, 230)" class="key keypos-24">
<rect rx="4" ry="4" x="-38" y="-38" width="77" height="77" class="key"/>
</g>
<g transform="translate(120, 230)" class="key keypos-25">
<rect rx="4" ry="4" x="-38" y="-38" width="77" height="77" class="key"/>
<text x="0" y="0" class="key tap">Z</text>
</g>
<g transform="translate(200, 210)" class="key keypos-26">
<rect rx="4" ry="4" x="-38" y="-38" width="77" height="77" class="key"/>
<text x="0" y="0" class="key tap">X</text>
</g>
<g transform="translate(280, 200)" class="key keypos-27">
<rect rx="4" ry="4" x="-38" y="-38" width="77" height="77" class="key"/>
<text x="0" y="0" class="key tap">C</text>
</g>
<g transform="translate(360, 210)" class="key keypos-28">
<rect rx="4" ry="4" x="-38" y="-38" width="77" height="77" class="key"/>
<text x="0" y="0" class="key tap">V</text>
</g>
<g transform="translate(440, 220)" class="key keypos-29">
<rect rx="4" ry="4" x="-38" y="-38" width="77" height="77" class="key"/>
<text x="0" y="0" class="key tap">B</text>
</g>
<g transform="translate(760, 220)" class="key keypos-30">
<rect rx="4" ry="4" x="-38" y="-38" width="77" height="77" class="key"/>
<text x="0" y="0" class="key tap">N</text>
</g>
<g transform="translate(840, 210)" class="key keypos-31">
<rect rx="4" ry="4" x="-38" y="-38" width="77" height="77" class="key"/>
<text x="0" y="0" class="key tap">M</text>
</g>
<g transform="translate(920, 200)" class="key keypos-32">
<rect rx="4" ry="4" x="-38" y="-38" width="77" height="77" class="key"/>
<text x="0" y="0" class="key tap">,</text>
</g>
<g transform="translate(1000, 210)" class="key keypos-33">
<rect rx="4" ry="4" x="-38" y="-38" width="77" height="77" class="key"/>
<text x="0" y="0" class="key tap">.</text>
</g>
<g transform="translate(1080, 230)" class="key keypos-34">
<rect rx="4" ry="4" x="-38" y="-38" width="77" height="77" class="key"/>
<text x="0" y="0" class="key tap">/</text>
</g>
<g transform="translate(1160, 230)" class="key keypos-35">
<rect rx="4" ry="4" x="-38" y="-38" width="77" height="77" class="key"/>
<text x="0" y="0" class="key tap">
<tspan x="0" dy="-0.5em">Zoom</tspan><tspan x="0" dy="1.0em">Out</tspan>
</text>
</g>
<g transform="translate(320, 293)" class="key keypos-36">
<rect rx="4" ry="4" x="-38" y="-38" width="77" height="77" class="key"/>
<text x="0" y="0" class="key tap">↹</text>
<text x="0" y="34" class="key hold">media</text>
</g>
<g transform="translate(408, 304) rotate(15.0)" class="key keypos-37">
<rect rx="4" ry="4" x="-38" y="-38" width="77" height="77" class="key"/>
<text x="0" y="0" class="key tap">⏎</text>
<text x="0" y="34" class="key hold">num</text>
</g>
<g transform="translate(502, 320) rotate(30.0)" class="key keypos-38">
<rect rx="4" ry="4" x="-38" y="-58" width="77" height="117" class="key"/>
<text x="0" y="0" class="key tap">Esc</text>
<text x="0" y="54" class="key hold">nav</text>
</g>
<g transform="translate(698, 320) rotate(-30.0)" class="key keypos-39">
<rect rx="4" ry="4" x="-38" y="-58" width="77" height="117" class="key"/>
<text x="0" y="0" class="key tap">⌫</text>
<text x="0" y="54" class="key hold">fun</text>
</g>
<g transform="translate(792, 304) rotate(-15.0)" class="key keypos-40">
<rect rx="4" ry="4" x="-38" y="-38" width="77" height="77" class="key"/>
<text x="0" y="0" class="key tap">SPC</text>
<text x="0" y="34" class="key hold"><tspan style="font-size: 83%">symbol</tspan></text>
</g>
<g transform="translate(880, 293)" class="key keypos-41">
<rect rx="4" ry="4" x="-38" y="-38" width="77" height="77" class="key"/>
<text x="0" y="0" class="key tap">⌦</text>
</g>
</g>
</g>
<g transform="translate(0, 392)" class="layer-symbol">
<text x="0" y="0" class="label">symbol</text>
<g transform="translate(0, 0)">
<g transform="translate(40, 70)" class="key keypos-0">
<rect rx="4" ry="4" x="-38" y="-38" width="77" height="77" class="key"/>
</g>
<g transform="translate(120, 70)" class="key keypos-1">
<rect rx="4" ry="4" x="-38" y="-38" width="77" height="77" class="key"/>
<text x="0" y="0" class="key tap">^</text>
</g>
<g transform="translate(200, 50)" class="key keypos-2">
<rect rx="4" ry="4" x="-38" y="-38" width="77" height="77" class="key"/>
<text x="0" y="0" class="key tap">&amp;</text>
</g>
<g transform="translate(280, 40)" class="key keypos-3">
<rect rx="4" ry="4" x="-38" y="-38" width="77" height="77" class="key"/>
<text x="0" y="0" class="key tap">#</text>
</g>
<g transform="translate(360, 50)" class="key keypos-4">
<rect rx="4" ry="4" x="-38" y="-38" width="77" height="77" class="key"/>
<text x="0" y="0" class="key tap">~</text>
</g>
<g transform="translate(440, 60)" class="key keypos-5">
<rect rx="4" ry="4" x="-38" y="-38" width="77" height="77" class="key"/>
<text x="0" y="0" class="key tap">(</text>
</g>
<g transform="translate(760, 60)" class="key keypos-6">
<rect rx="4" ry="4" x="-38" y="-38" width="77" height="77" class="key"/>
<text x="0" y="0" class="key tap">)</text>
</g>
<g transform="translate(840, 50)" class="key keypos-7">
<rect rx="4" ry="4" x="-38" y="-38" width="77" height="77" class="key"/>
</g>
<g transform="translate(920, 40)" class="key keypos-8">
<rect rx="4" ry="4" x="-38" y="-38" width="77" height="77" class="key"/>
</g>
<g transform="translate(1000, 50)" class="key keypos-9">
<rect rx="4" ry="4" x="-38" y="-38" width="77" height="77" class="key"/>
</g>
<g transform="translate(1080, 70)" class="key keypos-10">
<rect rx="4" ry="4" x="-38" y="-38" width="77" height="77" class="key"/>
</g>
<g transform="translate(1160, 70)" class="key keypos-11">
<rect rx="4" ry="4" x="-38" y="-38" width="77" height="77" class="key"/>
</g>
<g transform="translate(40, 150)" class="key keypos-12">
<rect rx="4" ry="4" x="-38" y="-38" width="77" height="77" class="key"/>
</g>
<g transform="translate(120, 150)" class="key keypos-13">
<rect rx="4" ry="4" x="-38" y="-38" width="77" height="77" class="key"/>
<text x="0" y="0" class="key tap">`</text>
</g>
<g transform="translate(200, 130)" class="key keypos-14">
<rect rx="4" ry="4" x="-38" y="-38" width="77" height="77" class="key"/>
<text x="0" y="0" class="key tap">|</text>
</g>
<g transform="translate(280, 120)" class="key keypos-15">
<rect rx="4" ry="4" x="-38" y="-38" width="77" height="77" class="key"/>
<text x="0" y="0" class="key tap">!</text>
</g>
<g transform="translate(360, 130)" class="key keypos-16">
<rect rx="4" ry="4" x="-38" y="-38" width="77" height="77" class="key"/>
<text x="0" y="0" class="key tap">&#x27;</text>
</g>
<g transform="translate(440, 140)" class="key keypos-17">
<rect rx="4" ry="4" x="-38" y="-38" width="77" height="77" class="key"/>
<text x="0" y="0" class="key tap">{</text>
</g>
<g transform="translate(760, 140)" class="key keypos-18">
<rect rx="4" ry="4" x="-38" y="-38" width="77" height="77" class="key"/>
<text x="0" y="0" class="key tap">}</text>
</g>
<g transform="translate(840, 130)" class="key keypos-19">
<rect rx="4" ry="4" x="-38" y="-38" width="77" height="77" class="key"/>
</g>
<g transform="translate(920, 120)" class="key keypos-20">
<rect rx="4" ry="4" x="-38" y="-38" width="77" height="77" class="key"/>
</g>
<g transform="translate(1000, 130)" class="key keypos-21">
<rect rx="4" ry="4" x="-38" y="-38" width="77" height="77" class="key"/>
</g>
<g transform="translate(1080, 150)" class="key keypos-22">
<rect rx="4" ry="4" x="-38" y="-38" width="77" height="77" class="key"/>
</g>
<g transform="translate(1160, 150)" class="key keypos-23">
<rect rx="4" ry="4" x="-38" y="-38" width="77" height="77" class="key"/>
</g>
<g transform="translate(40, 230)" class="key keypos-24">
<rect rx="4" ry="4" x="-38" y="-38" width="77" height="77" class="key"/>
</g>
<g transform="translate(120, 230)" class="key keypos-25">
<rect rx="4" ry="4" x="-38" y="-38" width="77" height="77" class="key"/>
<text x="0" y="0" class="key tap">\</text>
</g>
<g transform="translate(200, 210)" class="key keypos-26">
<rect rx="4" ry="4" x="-38" y="-38" width="77" height="77" class="key"/>
<text x="0" y="0" class="key tap">@</text>
</g>
<g transform="translate(280, 200)" class="key keypos-27">
<rect rx="4" ry="4" x="-38" y="-38" width="77" height="77" class="key"/>
<text x="0" y="0" class="key tap">$</text>
</g>
<g transform="translate(360, 210)" class="key keypos-28">
<rect rx="4" ry="4" x="-38" y="-38" width="77" height="77" class="key"/>
<text x="0" y="0" class="key tap">£</text>
</g>
<g transform="translate(440, 220)" class="key keypos-29">
<rect rx="4" ry="4" x="-38" y="-38" width="77" height="77" class="key"/>
<text x="0" y="0" class="key tap">[</text>
</g>
<g transform="translate(760, 220)" class="key keypos-30">
<rect rx="4" ry="4" x="-38" y="-38" width="77" height="77" class="key"/>
<text x="0" y="0" class="key tap">]</text>
</g>
<g transform="translate(840, 210)" class="key keypos-31">
<rect rx="4" ry="4" x="-38" y="-38" width="77" height="77" class="key"/>
</g>
<g transform="translate(920, 200)" class="key keypos-32">
<rect rx="4" ry="4" x="-38" y="-38" width="77" height="77" class="key"/>
</g>
<g transform="translate(1000, 210)" class="key keypos-33">
<rect rx="4" ry="4" x="-38" y="-38" width="77" height="77" class="key"/>
</g>
<g transform="translate(1080, 230)" class="key keypos-34">
<rect rx="4" ry="4" x="-38" y="-38" width="77" height="77" class="key"/>
</g>
<g transform="translate(1160, 230)" class="key keypos-35">
<rect rx="4" ry="4" x="-38" y="-38" width="77" height="77" class="key"/>
</g>
<g transform="translate(320, 293)" class="key keypos-36">
<rect rx="4" ry="4" x="-38" y="-38" width="77" height="77" class="key"/>
<text x="0" y="0" class="key tap">_</text>
</g>
<g transform="translate(408, 304) rotate(15.0)" class="key keypos-37">
<rect rx="4" ry="4" x="-38" y="-38" width="77" height="77" class="key"/>
<text x="0" y="0" class="key tap">-</text>
</g>
<g transform="translate(502, 320) rotate(30.0)" class="key keypos-38">
<rect rx="4" ry="4" x="-38" y="-58" width="77" height="117" class="key"/>
<text x="0" y="0" class="key tap">&quot;</text>
</g>
<g transform="translate(698, 320) rotate(-30.0)" class="key keypos-39">
<rect rx="4" ry="4" x="-38" y="-58" width="77" height="117" class="key"/>
</g>
<g transform="translate(792, 304) rotate(-15.0)" class="key held keypos-40">
<rect rx="4" ry="4" x="-38" y="-38" width="77" height="77" class="key held"/>
</g>
<g transform="translate(880, 293)" class="key keypos-41">
<rect rx="4" ry="4" x="-38" y="-38" width="77" height="77" class="key"/>
</g>
</g>
</g>
<g transform="translate(0, 785)" class="layer-nav">
<text x="0" y="0" class="label">nav</text>
<g transform="translate(0, 0)">
<g transform="translate(40, 70)" class="key keypos-0">
<rect rx="4" ry="4" x="-38" y="-38" width="77" height="77" class="key"/>
</g>
<g transform="translate(120, 70)" class="key keypos-1">
<rect rx="4" ry="4" x="-38" y="-38" width="77" height="77" class="key"/>
</g>
<g transform="translate(200, 50)" class="key keypos-2">
<rect rx="4" ry="4" x="-38" y="-38" width="77" height="77" class="key"/>
</g>
<g transform="translate(280, 40)" class="key keypos-3">
<rect rx="4" ry="4" x="-38" y="-38" width="77" height="77" class="key"/>
<text x="0" y="0" class="key tap">F15</text>
</g>
<g transform="translate(360, 50)" class="key keypos-4">
<rect rx="4" ry="4" x="-38" y="-38" width="77" height="77" class="key"/>
<text x="0" y="0" class="key tap">F16</text>
</g>
<g transform="translate(440, 60)" class="key keypos-5">
<rect rx="4" ry="4" x="-38" y="-38" width="77" height="77" class="key"/>
</g>
<g transform="translate(760, 60)" class="key keypos-6">
<rect rx="4" ry="4" x="-38" y="-38" width="77" height="77" class="key"/>
<text x="0" y="0" class="key tap">
<tspan x="0" dy="-0.5em">App</tspan><tspan x="0" dy="1.0em">Next</tspan>
</text>
</g>
<g transform="translate(840, 50)" class="key keypos-7">
<rect rx="4" ry="4" x="-38" y="-38" width="77" height="77" class="key"/>
<text x="0" y="0" class="key tap">
<tspan x="0" dy="-0.5em">Word</tspan><tspan x="0" dy="1.0em">Left</tspan>
</text>
</g>
<g transform="translate(920, 40)" class="key keypos-8">
<rect rx="4" ry="4" x="-38" y="-38" width="77" height="77" class="key"/>
<text x="0" y="0" class="key tap">
<tspan x="0" dy="-0.5em">Word</tspan><tspan x="0" dy="1.0em">Right</tspan>
</text>
</g>
<g transform="translate(1000, 50)" class="key keypos-9">
<rect rx="4" ry="4" x="-38" y="-38" width="77" height="77" class="key"/>
<text x="0" y="0" class="key tap">
<tspan x="0" dy="-0.5em">Page</tspan><tspan x="0" dy="1.0em">Up</tspan>
</text>
</g>
<g transform="translate(1080, 70)" class="key keypos-10">
<rect rx="4" ry="4" x="-38" y="-38" width="77" height="77" class="key"/>
</g>
<g transform="translate(1160, 70)" class="key keypos-11">
<rect rx="4" ry="4" x="-38" y="-38" width="77" height="77" class="key"/>
</g>
<g transform="translate(40, 150)" class="key keypos-12">
<rect rx="4" ry="4" x="-38" y="-38" width="77" height="77" class="key"/>
</g>
<g transform="translate(120, 150)" class="key keypos-13">
<rect rx="4" ry="4" x="-38" y="-38" width="77" height="77" class="key"/>
<text x="0" y="0" class="key tap">Undo</text>
</g>
<g transform="translate(200, 130)" class="key keypos-14">
<rect rx="4" ry="4" x="-38" y="-38" width="77" height="77" class="key"/>
<text x="0" y="0" class="key tap">Cut</text>
</g>
<g transform="translate(280, 120)" class="key keypos-15">
<rect rx="4" ry="4" x="-38" y="-38" width="77" height="77" class="key"/>
<text x="0" y="0" class="key tap">Copy</text>
</g>
<g transform="translate(360, 130)" class="key keypos-16">
<rect rx="4" ry="4" x="-38" y="-38" width="77" height="77" class="key"/>
<text x="0" y="0" class="key tap">Paste</text>
<use href="#mdi:apple-keyboard-shift" xlink:href="#mdi:apple-keyboard-shift" x="-9" y="16" height="18" width="18.0" class="key hold glyph mdi:apple-keyboard-shift"/>
</g>
<g transform="translate(440, 140)" class="key keypos-17">
<rect rx="4" ry="4" x="-38" y="-38" width="77" height="77" class="key"/>
<text x="0" y="0" class="key tap">
<tspan x="0" dy="-0.5em">Caps</tspan><tspan x="0" dy="1.0em">Wrd</tspan>
</text>
</g>
<g transform="translate(760, 140)" class="key keypos-18">
<rect rx="4" ry="4" x="-38" y="-38" width="77" height="77" class="key"/>
<text x="0" y="0" class="key tap">←</text>
</g>
<g transform="translate(840, 130)" class="key keypos-19">
<rect rx="4" ry="4" x="-38" y="-38" width="77" height="77" class="key"/>
<text x="0" y="0" class="key tap">↓</text>
</g>
<g transform="translate(920, 120)" class="key keypos-20">
<rect rx="4" ry="4" x="-38" y="-38" width="77" height="77" class="key"/>
<text x="0" y="0" class="key tap">↑</text>
</g>
<g transform="translate(1000, 130)" class="key keypos-21">
<rect rx="4" ry="4" x="-38" y="-38" width="77" height="77" class="key"/>
<text x="0" y="0" class="key tap">→</text>
</g>
<g transform="translate(1080, 150)" class="key keypos-22">
<rect rx="4" ry="4" x="-38" y="-38" width="77" height="77" class="key"/>
</g>
<g transform="translate(1160, 150)" class="key keypos-23">
<rect rx="4" ry="4" x="-38" y="-38" width="77" height="77" class="key"/>
</g>
<g transform="translate(40, 230)" class="key keypos-24">
<rect rx="4" ry="4" x="-38" y="-38" width="77" height="77" class="key"/>
</g>
<g transform="translate(120, 230)" class="key keypos-25">
<rect rx="4" ry="4" x="-38" y="-38" width="77" height="77" class="key"/>
</g>
<g transform="translate(200, 210)" class="key keypos-26">
<rect rx="4" ry="4" x="-38" y="-38" width="77" height="77" class="key"/>
</g>
<g transform="translate(280, 200)" class="key keypos-27">
<rect rx="4" ry="4" x="-38" y="-38" width="77" height="77" class="key"/>
</g>
<g transform="translate(360, 210)" class="key keypos-28">
<rect rx="4" ry="4" x="-38" y="-38" width="77" height="77" class="key"/>
</g>
<g transform="translate(440, 220)" class="key keypos-29">
<rect rx="4" ry="4" x="-38" y="-38" width="77" height="77" class="key"/>
</g>
<g transform="translate(760, 220)" class="key keypos-30">
<rect rx="4" ry="4" x="-38" y="-38" width="77" height="77" class="key"/>
<text x="0" y="0" class="key tap">
<tspan x="0" dy="-0.5em">Win</tspan><tspan x="0" dy="1.0em">Next</tspan>
</text>
</g>
<g transform="translate(840, 210)" class="key keypos-31">
<rect rx="4" ry="4" x="-38" y="-38" width="77" height="77" class="key"/>
<text x="0" y="0" class="key tap">Home</text>
</g>
<g transform="translate(920, 200)" class="key keypos-32">
<rect rx="4" ry="4" x="-38" y="-38" width="77" height="77" class="key"/>
<text x="0" y="0" class="key tap">End</text>
</g>
<g transform="translate(1000, 210)" class="key keypos-33">
<rect rx="4" ry="4" x="-38" y="-38" width="77" height="77" class="key"/>
<text x="0" y="0" class="key tap">
<tspan x="0" dy="-0.5em">Page</tspan><tspan x="0" dy="1.0em">Down</tspan>
</text>
</g>
<g transform="translate(1080, 230)" class="key keypos-34">
<rect rx="4" ry="4" x="-38" y="-38" width="77" height="77" class="key"/>
</g>
<g transform="translate(1160, 230)" class="key keypos-35">
<rect rx="4" ry="4" x="-38" y="-38" width="77" height="77" class="key"/>
</g>
<g transform="translate(320, 293)" class="key keypos-36">
<rect rx="4" ry="4" x="-38" y="-38" width="77" height="77" class="key"/>
</g>
<g transform="translate(408, 304) rotate(15.0)" class="key keypos-37">
<rect rx="4" ry="4" x="-38" y="-38" width="77" height="77" class="key"/>
</g>
<g transform="translate(502, 320) rotate(30.0)" class="key held keypos-38">
<rect rx="4" ry="4" x="-38" y="-58" width="77" height="117" class="key held"/>
</g>
<g transform="translate(698, 320) rotate(-30.0)" class="key keypos-39">
<rect rx="4" ry="4" x="-38" y="-58" width="77" height="117" class="key"/>
<text x="0" y="0" class="key tap">
<tspan x="0" dy="-0.5em" style="font-size: 83%">Delete</tspan><tspan x="0" dy="1.0em" style="font-size: 83%">Word</tspan>
</text>
</g>
<g transform="translate(792, 304) rotate(-15.0)" class="key keypos-40">
<rect rx="4" ry="4" x="-38" y="-38" width="77" height="77" class="key"/>
<text x="0" y="0" class="key tap">
<tspan x="0" dy="-0.5em">Spot</tspan><tspan x="0" dy="1.0em">light</tspan>
</text>
</g>
<g transform="translate(880, 293)" class="key keypos-41">
<rect rx="4" ry="4" x="-38" y="-38" width="77" height="77" class="key"/>
</g>
</g>
</g>
<g transform="translate(0, 1177)" class="layer-num">
<text x="0" y="0" class="label">num</text>
<g transform="translate(0, 0)">
<g transform="translate(40, 70)" class="key keypos-0">
<rect rx="4" ry="4" x="-38" y="-38" width="77" height="77" class="key"/>
</g>
<g transform="translate(120, 70)" class="key keypos-1">
<rect rx="4" ry="4" x="-38" y="-38" width="77" height="77" class="key"/>
</g>
<g transform="translate(200, 50)" class="key keypos-2">
<rect rx="4" ry="4" x="-38" y="-38" width="77" height="77" class="key"/>
</g>
<g transform="translate(280, 40)" class="key keypos-3">
<rect rx="4" ry="4" x="-38" y="-38" width="77" height="77" class="key"/>
</g>
<g transform="translate(360, 50)" class="key keypos-4">
<rect rx="4" ry="4" x="-38" y="-38" width="77" height="77" class="key"/>
</g>
<g transform="translate(440, 60)" class="key keypos-5">
<rect rx="4" ry="4" x="-38" y="-38" width="77" height="77" class="key"/>
</g>
<g transform="translate(760, 60)" class="key keypos-6">
<rect rx="4" ry="4" x="-38" y="-38" width="77" height="77" class="key"/>
<text x="0" y="0" class="key tap">*</text>
</g>
<g transform="translate(840, 50)" class="key keypos-7">
<rect rx="4" ry="4" x="-38" y="-38" width="77" height="77" class="key"/>
<text x="0" y="0" class="key tap">7</text>
</g>
<g transform="translate(920, 40)" class="key keypos-8">
<rect rx="4" ry="4" x="-38" y="-38" width="77" height="77" class="key"/>
<text x="0" y="0" class="key tap">8</text>
</g>
<g transform="translate(1000, 50)" class="key keypos-9">
<rect rx="4" ry="4" x="-38" y="-38" width="77" height="77" class="key"/>
<text x="0" y="0" class="key tap">9</text>
</g>
<g transform="translate(1080, 70)" class="key keypos-10">
<rect rx="4" ry="4" x="-38" y="-38" width="77" height="77" class="key"/>
</g>
<g transform="translate(1160, 70)" class="key keypos-11">
<rect rx="4" ry="4" x="-38" y="-38" width="77" height="77" class="key"/>
</g>
<g transform="translate(40, 150)" class="key keypos-12">
<rect rx="4" ry="4" x="-38" y="-38" width="77" height="77" class="key"/>
</g>
<g transform="translate(120, 150)" class="key keypos-13">
<rect rx="4" ry="4" x="-38" y="-38" width="77" height="77" class="key"/>
<use href="#mdi:apple-keyboard-control" xlink:href="#mdi:apple-keyboard-control" x="-13" y="-13" height="26" width="26.0" class="key tap glyph mdi:apple-keyboard-control"/>
</g>
<g transform="translate(200, 130)" class="key keypos-14">
<rect rx="4" ry="4" x="-38" y="-38" width="77" height="77" class="key"/>
<use href="#mdi:apple-keyboard-option" xlink:href="#mdi:apple-keyboard-option" x="-13" y="-13" height="26" width="26.0" class="key tap glyph mdi:apple-keyboard-option"/>
</g>
<g transform="translate(280, 120)" class="key keypos-15">
<rect rx="4" ry="4" x="-38" y="-38" width="77" height="77" class="key"/>
<use href="#mdi:apple-keyboard-command" xlink:href="#mdi:apple-keyboard-command" x="-13" y="-13" height="26" width="26.0" class="key tap glyph mdi:apple-keyboard-command"/>
</g>
<g transform="translate(360, 130)" class="key keypos-16">
<rect rx="4" ry="4" x="-38" y="-38" width="77" height="77" class="key"/>
<use href="#mdi:apple-keyboard-shift" xlink:href="#mdi:apple-keyboard-shift" x="-13" y="-13" height="26" width="26.0" class="key tap glyph mdi:apple-keyboard-shift"/>
</g>
<g transform="translate(440, 140)" class="key keypos-17">
<rect rx="4" ry="4" x="-38" y="-38" width="77" height="77" class="key"/>
</g>
<g transform="translate(760, 140)" class="key keypos-18">
<rect rx="4" ry="4" x="-38" y="-38" width="77" height="77" class="key"/>
<text x="0" y="0" class="key tap">+</text>
</g>
<g transform="translate(840, 130)" class="key keypos-19">
<rect rx="4" ry="4" x="-38" y="-38" width="77" height="77" class="key"/>
<text x="0" y="0" class="key tap">4</text>
</g>
<g transform="translate(920, 120)" class="key keypos-20">
<rect rx="4" ry="4" x="-38" y="-38" width="77" height="77" class="key"/>
<text x="0" y="0" class="key tap">5</text>
</g>
<g transform="translate(1000, 130)" class="key keypos-21">
<rect rx="4" ry="4" x="-38" y="-38" width="77" height="77" class="key"/>
<text x="0" y="0" class="key tap">6</text>
</g>
<g transform="translate(1080, 150)" class="key keypos-22">
<rect rx="4" ry="4" x="-38" y="-38" width="77" height="77" class="key"/>
<text x="0" y="0" class="key tap">/</text>
</g>
<g transform="translate(1160, 150)" class="key keypos-23">
<rect rx="4" ry="4" x="-38" y="-38" width="77" height="77" class="key"/>
</g>
<g transform="translate(40, 230)" class="key keypos-24">
<rect rx="4" ry="4" x="-38" y="-38" width="77" height="77" class="key"/>
</g>
<g transform="translate(120, 230)" class="key keypos-25">
<rect rx="4" ry="4" x="-38" y="-38" width="77" height="77" class="key"/>
</g>
<g transform="translate(200, 210)" class="key keypos-26">
<rect rx="4" ry="4" x="-38" y="-38" width="77" height="77" class="key"/>
</g>
<g transform="translate(280, 200)" class="key keypos-27">
<rect rx="4" ry="4" x="-38" y="-38" width="77" height="77" class="key"/>
</g>
<g transform="translate(360, 210)" class="key keypos-28">
<rect rx="4" ry="4" x="-38" y="-38" width="77" height="77" class="key"/>
</g>
<g transform="translate(440, 220)" class="key keypos-29">
<rect rx="4" ry="4" x="-38" y="-38" width="77" height="77" class="key"/>
</g>
<g transform="translate(760, 220)" class="key keypos-30">
<rect rx="4" ry="4" x="-38" y="-38" width="77" height="77" class="key"/>
<text x="0" y="0" class="key tap">-</text>
</g>
<g transform="translate(840, 210)" class="key keypos-31">
<rect rx="4" ry="4" x="-38" y="-38" width="77" height="77" class="key"/>
<text x="0" y="0" class="key tap">1</text>
</g>
<g transform="translate(920, 200)" class="key keypos-32">
<rect rx="4" ry="4" x="-38" y="-38" width="77" height="77" class="key"/>
<text x="0" y="0" class="key tap">2</text>
</g>
<g transform="translate(1000, 210)" class="key keypos-33">
<rect rx="4" ry="4" x="-38" y="-38" width="77" height="77" class="key"/>
<text x="0" y="0" class="key tap">3</text>
</g>
<g transform="translate(1080, 230)" class="key keypos-34">
<rect rx="4" ry="4" x="-38" y="-38" width="77" height="77" class="key"/>
<text x="0" y="0" class="key tap">%</text>
</g>
<g transform="translate(1160, 230)" class="key keypos-35">
<rect rx="4" ry="4" x="-38" y="-38" width="77" height="77" class="key"/>
</g>
<g transform="translate(320, 293)" class="key keypos-36">
<rect rx="4" ry="4" x="-38" y="-38" width="77" height="77" class="key"/>
</g>
<g transform="translate(408, 304) rotate(15.0)" class="key held keypos-37">
<rect rx="4" ry="4" x="-38" y="-38" width="77" height="77" class="key held"/>
</g>
<g transform="translate(502, 320) rotate(30.0)" class="key keypos-38">
<rect rx="4" ry="4" x="-38" y="-58" width="77" height="117" class="key"/>
</g>
<g transform="translate(698, 320) rotate(-30.0)" class="key keypos-39">
<rect rx="4" ry="4" x="-38" y="-58" width="77" height="117" class="key"/>
<text x="0" y="0" class="key tap">=</text>
</g>
<g transform="translate(792, 304) rotate(-15.0)" class="key keypos-40">
<rect rx="4" ry="4" x="-38" y="-38" width="77" height="77" class="key"/>
<text x="0" y="0" class="key tap">0</text>
</g>
<g transform="translate(880, 293)" class="key keypos-41">
<rect rx="4" ry="4" x="-38" y="-38" width="77" height="77" class="key"/>
<text x="0" y="0" class="key tap">.</text>
</g>
</g>
</g>
<g transform="translate(0, 1569)" class="layer-fun">
<text x="0" y="0" class="label">fun</text>
<g transform="translate(0, 0)">
<g transform="translate(40, 70)" class="key keypos-0">
<rect rx="4" ry="4" x="-38" y="-38" width="77" height="77" class="key"/>
</g>
<g transform="translate(120, 70)" class="key keypos-1">
<rect rx="4" ry="4" x="-38" y="-38" width="77" height="77" class="key"/>
<text x="0" y="0" class="key tap">F9</text>
</g>
<g transform="translate(200, 50)" class="key keypos-2">
<rect rx="4" ry="4" x="-38" y="-38" width="77" height="77" class="key"/>
<text x="0" y="0" class="key tap">F10</text>
</g>
<g transform="translate(280, 40)" class="key keypos-3">
<rect rx="4" ry="4" x="-38" y="-38" width="77" height="77" class="key"/>
<text x="0" y="0" class="key tap">F11</text>
</g>
<g transform="translate(360, 50)" class="key keypos-4">
<rect rx="4" ry="4" x="-38" y="-38" width="77" height="77" class="key"/>
<text x="0" y="0" class="key tap">F12</text>
</g>
<g transform="translate(440, 60)" class="key keypos-5">
<rect rx="4" ry="4" x="-38" y="-38" width="77" height="77" class="key"/>
</g>
<g transform="translate(760, 60)" class="key keypos-6">
<rect rx="4" ry="4" x="-38" y="-38" width="77" height="77" class="key"/>
</g>
<g transform="translate(840, 50)" class="key keypos-7">
<rect rx="4" ry="4" x="-38" y="-38" width="77" height="77" class="key"/>
</g>
<g transform="translate(920, 40)" class="key keypos-8">
<rect rx="4" ry="4" x="-38" y="-38" width="77" height="77" class="key"/>
</g>
<g transform="translate(1000, 50)" class="key keypos-9">
<rect rx="4" ry="4" x="-38" y="-38" width="77" height="77" class="key"/>
</g>
<g transform="translate(1080, 70)" class="key keypos-10">
<rect rx="4" ry="4" x="-38" y="-38" width="77" height="77" class="key"/>
</g>
<g transform="translate(1160, 70)" class="key keypos-11">
<rect rx="4" ry="4" x="-38" y="-38" width="77" height="77" class="key"/>
</g>
<g transform="translate(40, 150)" class="key keypos-12">
<rect rx="4" ry="4" x="-38" y="-38" width="77" height="77" class="key"/>
</g>
<g transform="translate(120, 150)" class="key keypos-13">
<rect rx="4" ry="4" x="-38" y="-38" width="77" height="77" class="key"/>
<text x="0" y="0" class="key tap">F5</text>
</g>
<g transform="translate(200, 130)" class="key keypos-14">
<rect rx="4" ry="4" x="-38" y="-38" width="77" height="77" class="key"/>
<text x="0" y="0" class="key tap">F6</text>
</g>
<g transform="translate(280, 120)" class="key keypos-15">
<rect rx="4" ry="4" x="-38" y="-38" width="77" height="77" class="key"/>
<text x="0" y="0" class="key tap">F7</text>
</g>
<g transform="translate(360, 130)" class="key keypos-16">
<rect rx="4" ry="4" x="-38" y="-38" width="77" height="77" class="key"/>
<text x="0" y="0" class="key tap">F8</text>
</g>
<g transform="translate(440, 140)" class="key keypos-17">
<rect rx="4" ry="4" x="-38" y="-38" width="77" height="77" class="key"/>
</g>
<g transform="translate(760, 140)" class="key keypos-18">
<rect rx="4" ry="4" x="-38" y="-38" width="77" height="77" class="key"/>
</g>
<g transform="translate(840, 130)" class="key keypos-19">
<rect rx="4" ry="4" x="-38" y="-38" width="77" height="77" class="key"/>
<use href="#mdi:apple-keyboard-shift" xlink:href="#mdi:apple-keyboard-shift" x="-13" y="-13" height="26" width="26.0" class="key tap glyph mdi:apple-keyboard-shift"/>
</g>
<g transform="translate(920, 120)" class="key keypos-20">
<rect rx="4" ry="4" x="-38" y="-38" width="77" height="77" class="key"/>
<use href="#mdi:apple-keyboard-control" xlink:href="#mdi:apple-keyboard-control" x="-13" y="-13" height="26" width="26.0" class="key tap glyph mdi:apple-keyboard-control"/>
</g>
<g transform="translate(1000, 130)" class="key keypos-21">
<rect rx="4" ry="4" x="-38" y="-38" width="77" height="77" class="key"/>
<use href="#mdi:apple-keyboard-option" xlink:href="#mdi:apple-keyboard-option" x="-13" y="-13" height="26" width="26.0" class="key tap glyph mdi:apple-keyboard-option"/>
</g>
<g transform="translate(1080, 150)" class="key keypos-22">
<rect rx="4" ry="4" x="-38" y="-38" width="77" height="77" class="key"/>
<use href="#mdi:apple-keyboard-command" xlink:href="#mdi:apple-keyboard-command" x="-13" y="-13" height="26" width="26.0" class="key tap glyph mdi:apple-keyboard-command"/>
</g>
<g transform="translate(1160, 150)" class="key keypos-23">
<rect rx="4" ry="4" x="-38" y="-38" width="77" height="77" class="key"/>
</g>
<g transform="translate(40, 230)" class="key keypos-24">
<rect rx="4" ry="4" x="-38" y="-38" width="77" height="77" class="key"/>
</g>
<g transform="translate(120, 230)" class="key keypos-25">
<rect rx="4" ry="4" x="-38" y="-38" width="77" height="77" class="key"/>
<text x="0" y="0" class="key tap">F1</text>
</g>
<g transform="translate(200, 210)" class="key keypos-26">
<rect rx="4" ry="4" x="-38" y="-38" width="77" height="77" class="key"/>
<text x="0" y="0" class="key tap">F2</text>
</g>
<g transform="translate(280, 200)" class="key keypos-27">
<rect rx="4" ry="4" x="-38" y="-38" width="77" height="77" class="key"/>
<text x="0" y="0" class="key tap">F3</text>
</g>
<g transform="translate(360, 210)" class="key keypos-28">
<rect rx="4" ry="4" x="-38" y="-38" width="77" height="77" class="key"/>
<text x="0" y="0" class="key tap">F4</text>
</g>
<g transform="translate(440, 220)" class="key keypos-29">
<rect rx="4" ry="4" x="-38" y="-38" width="77" height="77" class="key"/>
</g>
<g transform="translate(760, 220)" class="key keypos-30">
<rect rx="4" ry="4" x="-38" y="-38" width="77" height="77" class="key"/>
</g>
<g transform="translate(840, 210)" class="key keypos-31">
<rect rx="4" ry="4" x="-38" y="-38" width="77" height="77" class="key"/>
</g>
<g transform="translate(920, 200)" class="key keypos-32">
<rect rx="4" ry="4" x="-38" y="-38" width="77" height="77" class="key"/>
</g>
<g transform="translate(1000, 210)" class="key keypos-33">
<rect rx="4" ry="4" x="-38" y="-38" width="77" height="77" class="key"/>
</g>
<g transform="translate(1080, 230)" class="key keypos-34">
<rect rx="4" ry="4" x="-38" y="-38" width="77" height="77" class="key"/>
</g>
<g transform="translate(1160, 230)" class="key keypos-35">
<rect rx="4" ry="4" x="-38" y="-38" width="77" height="77" class="key"/>
</g>
<g transform="translate(320, 293)" class="key keypos-36">
<rect rx="4" ry="4" x="-38" y="-38" width="77" height="77" class="key"/>
</g>
<g transform="translate(408, 304) rotate(15.0)" class="key keypos-37">
<rect rx="4" ry="4" x="-38" y="-38" width="77" height="77" class="key"/>
</g>
<g transform="translate(502, 320) rotate(30.0)" class="key keypos-38">
<rect rx="4" ry="4" x="-38" y="-58" width="77" height="117" class="key"/>
</g>
<g transform="translate(698, 320) rotate(-30.0)" class="key held keypos-39">
<rect rx="4" ry="4" x="-38" y="-58" width="77" height="117" class="key held"/>
</g>
<g transform="translate(792, 304) rotate(-15.0)" class="key keypos-40">
<rect rx="4" ry="4" x="-38" y="-38" width="77" height="77" class="key"/>
</g>
<g transform="translate(880, 293)" class="key keypos-41">
<rect rx="4" ry="4" x="-38" y="-38" width="77" height="77" class="key"/>
</g>
</g>
</g>
<g transform="translate(0, 1962)" class="layer-media">
<text x="0" y="0" class="label">media</text>
<g transform="translate(0, 0)">
<g transform="translate(40, 70)" class="key keypos-0">
<rect rx="4" ry="4" x="-38" y="-38" width="77" height="77" class="key"/>
<text x="0" y="0" class="key tap">Boot</text>
</g>
<g transform="translate(120, 70)" class="key keypos-1">
<rect rx="4" ry="4" x="-38" y="-38" width="77" height="77" class="key"/>
</g>
<g transform="translate(200, 50)" class="key keypos-2">
<rect rx="4" ry="4" x="-38" y="-38" width="77" height="77" class="key"/>
</g>
<g transform="translate(280, 40)" class="key keypos-3">
<rect rx="4" ry="4" x="-38" y="-38" width="77" height="77" class="key"/>
</g>
<g transform="translate(360, 50)" class="key keypos-4">
<rect rx="4" ry="4" x="-38" y="-38" width="77" height="77" class="key"/>
</g>
<g transform="translate(440, 60)" class="key keypos-5">
<rect rx="4" ry="4" x="-38" y="-38" width="77" height="77" class="key"/>
</g>
<g transform="translate(760, 60)" class="key keypos-6">
<rect rx="4" ry="4" x="-38" y="-38" width="77" height="77" class="key"/>
</g>
<g transform="translate(840, 50)" class="key keypos-7">
<rect rx="4" ry="4" x="-38" y="-38" width="77" height="77" class="key"/>
</g>
<g transform="translate(920, 40)" class="key keypos-8">
<rect rx="4" ry="4" x="-38" y="-38" width="77" height="77" class="key"/>
</g>
<g transform="translate(1000, 50)" class="key keypos-9">
<rect rx="4" ry="4" x="-38" y="-38" width="77" height="77" class="key"/>
</g>
<g transform="translate(1080, 70)" class="key keypos-10">
<rect rx="4" ry="4" x="-38" y="-38" width="77" height="77" class="key"/>
</g>
<g transform="translate(1160, 70)" class="key keypos-11">
<rect rx="4" ry="4" x="-38" y="-38" width="77" height="77" class="key"/>
</g>
<g transform="translate(40, 150)" class="key keypos-12">
<rect rx="4" ry="4" x="-38" y="-38" width="77" height="77" class="key"/>
</g>
<g transform="translate(120, 150)" class="key keypos-13">
<rect rx="4" ry="4" x="-38" y="-38" width="77" height="77" class="key"/>
</g>
<g transform="translate(200, 130)" class="key keypos-14">
<rect rx="4" ry="4" x="-38" y="-38" width="77" height="77" class="key"/>
</g>
<g transform="translate(280, 120)" class="key keypos-15">
<rect rx="4" ry="4" x="-38" y="-38" width="77" height="77" class="key"/>
</g>
<g transform="translate(360, 130)" class="key keypos-16">
<rect rx="4" ry="4" x="-38" y="-38" width="77" height="77" class="key"/>
</g>
<g transform="translate(440, 140)" class="key keypos-17">
<rect rx="4" ry="4" x="-38" y="-38" width="77" height="77" class="key"/>
</g>
<g transform="translate(760, 140)" class="key keypos-18">
<rect rx="4" ry="4" x="-38" y="-38" width="77" height="77" class="key"/>
<text x="0" y="0" class="key tap">⏮️</text>
</g>
<g transform="translate(840, 130)" class="key keypos-19">
<rect rx="4" ry="4" x="-38" y="-38" width="77" height="77" class="key"/>
<text x="0" y="0" class="key tap">
<tspan x="0" dy="-0.5em">Vol</tspan><tspan x="0" dy="1.0em">Down</tspan>
</text>
</g>
<g transform="translate(920, 120)" class="key keypos-20">
<rect rx="4" ry="4" x="-38" y="-38" width="77" height="77" class="key"/>
<text x="0" y="0" class="key tap">
<tspan x="0" dy="-0.5em">Vol</tspan><tspan x="0" dy="1.0em">Up</tspan>
</text>
</g>
<g transform="translate(1000, 130)" class="key keypos-21">
<rect rx="4" ry="4" x="-38" y="-38" width="77" height="77" class="key"/>
<text x="0" y="0" class="key tap">⏭️</text>
</g>
<g transform="translate(1080, 150)" class="key keypos-22">
<rect rx="4" ry="4" x="-38" y="-38" width="77" height="77" class="key"/>
</g>
<g transform="translate(1160, 150)" class="key keypos-23">
<rect rx="4" ry="4" x="-38" y="-38" width="77" height="77" class="key"/>
</g>
<g transform="translate(40, 230)" class="key keypos-24">
<rect rx="4" ry="4" x="-38" y="-38" width="77" height="77" class="key"/>
<text x="0" y="0" class="key tap">
<tspan x="0" dy="-0.5em">BT</tspan><tspan x="0" dy="1.0em">CLR</tspan>
</text>
</g>
<g transform="translate(120, 230)" class="key keypos-25">
<rect rx="4" ry="4" x="-38" y="-38" width="77" height="77" class="key"/>
<text x="0" y="0" class="key tap">
<tspan x="0" dy="-0.5em">BT</tspan><tspan x="0" dy="1.0em">1</tspan>
</text>
</g>
<g transform="translate(200, 210)" class="key keypos-26">
<rect rx="4" ry="4" x="-38" y="-38" width="77" height="77" class="key"/>
<text x="0" y="0" class="key tap">
<tspan x="0" dy="-0.5em">BT</tspan><tspan x="0" dy="1.0em">2</tspan>
</text>
</g>
<g transform="translate(280, 200)" class="key keypos-27">
<rect rx="4" ry="4" x="-38" y="-38" width="77" height="77" class="key"/>
<text x="0" y="0" class="key tap">
<tspan x="0" dy="-0.5em">BT</tspan><tspan x="0" dy="1.0em">3</tspan>
</text>
</g>
<g transform="translate(360, 210)" class="key keypos-28">
<rect rx="4" ry="4" x="-38" y="-38" width="77" height="77" class="key"/>
</g>
<g transform="translate(440, 220)" class="key keypos-29">
<rect rx="4" ry="4" x="-38" y="-38" width="77" height="77" class="key"/>
</g>
<g transform="translate(760, 220)" class="key keypos-30">
<rect rx="4" ry="4" x="-38" y="-38" width="77" height="77" class="key"/>
</g>
<g transform="translate(840, 210)" class="key keypos-31">
<rect rx="4" ry="4" x="-38" y="-38" width="77" height="77" class="key"/>
</g>
<g transform="translate(920, 200)" class="key keypos-32">
<rect rx="4" ry="4" x="-38" y="-38" width="77" height="77" class="key"/>
</g>
<g transform="translate(1000, 210)" class="key keypos-33">
<rect rx="4" ry="4" x="-38" y="-38" width="77" height="77" class="key"/>
</g>
<g transform="translate(1080, 230)" class="key keypos-34">
<rect rx="4" ry="4" x="-38" y="-38" width="77" height="77" class="key"/>
</g>
<g transform="translate(1160, 230)" class="key keypos-35">
<rect rx="4" ry="4" x="-38" y="-38" width="77" height="77" class="key"/>
</g>
<g transform="translate(320, 293)" class="key held keypos-36">
<rect rx="4" ry="4" x="-38" y="-38" width="77" height="77" class="key held"/>
</g>
<g transform="translate(408, 304) rotate(15.0)" class="key keypos-37">
<rect rx="4" ry="4" x="-38" y="-38" width="77" height="77" class="key"/>
</g>
<g transform="translate(502, 320) rotate(30.0)" class="key keypos-38">
<rect rx="4" ry="4" x="-38" y="-58" width="77" height="117" class="key"/>
</g>
<g transform="translate(698, 320) rotate(-30.0)" class="key keypos-39">
<rect rx="4" ry="4" x="-38" y="-58" width="77" height="117" class="key"/>
<text x="0" y="0" class="key tap">MUTE</text>
</g>
<g transform="translate(792, 304) rotate(-15.0)" class="key keypos-40">
<rect rx="4" ry="4" x="-38" y="-38" width="77" height="77" class="key"/>
<text x="0" y="0" class="key tap">⏯️</text>
</g>
<g transform="translate(880, 293)" class="key keypos-41">
<rect rx="4" ry="4" x="-38" y="-38" width="77" height="77" class="key"/>
<text x="0" y="0" class="key tap">STOP</text>
</g>
</g>
</g>
</svg>
